<svg width="165" height="62" viewBox="0 0 165 62" fill="none" xmlns="http://www.w3.org/2000/svg">
<path fill-rule="evenodd" clip-rule="evenodd" d="M37.5182 60.9737C48.7634 59.5184 55.7401 45.9301 53.101 30.6233C50.4619 15.3165 39.2063 4.08765 27.9611 5.54291C16.7158 6.99817 9.73911 20.5865 12.3782 35.8933C15.0174 51.2001 26.2729 62.429 37.5182 60.9737ZM43.1663 52.6268C50.5905 51.2298 54.3182 40.959 51.4922 29.6863C48.6663 18.4136 40.3569 10.4078 32.9326 11.8047C25.5084 13.2017 21.7808 23.4725 24.6067 34.7451C27.4326 46.0178 35.7421 54.0237 43.1663 52.6268Z" fill="black"/>
<path fill-rule="evenodd" clip-rule="evenodd" d="M42.4001 48.9983C48.4873 47.8358 51.8109 39.3138 49.8235 29.9639C47.8361 20.614 41.2903 13.9768 35.2031 15.1393C29.1158 16.3017 25.7923 24.8237 27.7797 34.1736C29.7671 43.5236 36.3129 50.1608 42.4001 48.9983ZM45.1909 43.7302C49.1941 42.6945 50.8624 36.2899 48.9171 29.4252C46.9717 22.5604 42.1494 17.8351 38.1462 18.8708C34.1429 19.9065 32.4746 26.3111 34.42 33.1758C36.3653 40.0406 41.1876 44.7659 45.1909 43.7302Z" fill="black"/>
<ellipse rx="5.47889" ry="7.30343" transform="matrix(0.994532 -0.104429 0.138547 0.990356 36.7577 31.9265)" fill="black"/>
<path fill-rule="evenodd" clip-rule="evenodd" d="M49.6364 6.10004C48.5887 -0.101619 40.5849 -2.12439 35.8528 2.61658L33.8272 4.64596C42.1514 6.56765 49.5667 14.5213 52.8587 25.1759L49.6364 6.10004ZM54.6259 35.6375C54.9708 45.4938 51.5398 54.1811 45.8045 59.0419L46.4157 59.1964C52.2255 60.6647 57.9977 55.598 57.0315 49.8781L54.6259 35.6375ZM16.3813 51.6059C13.5097 47.2534 11.4368 41.9183 10.5877 36.0411C10.2042 33.3864 10.0942 30.7856 10.2311 28.2863L2.44847 36.0836C-1.91599 40.4562 -0.193562 47.417 5.61622 48.8853L16.3813 51.6059Z" fill="#CA0100"/>
<path d="M65.9265 24.6755C66.2465 22.9355 66.8365 21.4155 67.6965 20.1155C68.5565 18.8155 69.5865 17.8155 70.7865 17.1155C72.0065 16.4155 73.2865 16.0655 74.6265 16.0655C75.7865 16.0655 76.7465 16.2955 77.5065 16.7555C78.2665 17.2155 78.7965 17.8355 79.0965 18.6155L79.5165 16.2755H85.3965L82.4265 33.1055H76.5465L76.9665 30.7655C76.3865 31.5455 75.6265 32.1655 74.6865 32.6255C73.7465 33.0855 72.7065 33.3155 71.5665 33.3155C69.8065 33.3155 68.3965 32.7355 67.3365 31.5755C66.2765 30.3955 65.7465 28.7955 65.7465 26.7755C65.7465 26.1155 65.8065 25.4155 65.9265 24.6755ZM78.0465 24.6755C78.1065 24.3755 78.1365 24.0955 78.1365 23.8355C78.1365 22.9955 77.8965 22.3455 77.4165 21.8855C76.9565 21.4255 76.3565 21.1955 75.6165 21.1955C74.7365 21.1955 73.9465 21.5055 73.2465 22.1255C72.5465 22.7255 72.1065 23.5755 71.9265 24.6755C71.8665 24.9755 71.8365 25.2655 71.8365 25.5455C71.8365 26.3855 72.0665 27.0355 72.5265 27.4955C73.0065 27.9555 73.6165 28.1855 74.3565 28.1855C75.2365 28.1855 76.0265 27.8755 76.7265 27.2555C77.4265 26.6355 77.8665 25.7755 78.0465 24.6755ZM105.997 16.2755L102.997 33.1055H97.1172L97.5372 30.7055C96.8772 31.4655 96.0672 32.0855 95.1072 32.5655C94.1672 33.0255 93.1272 33.2555 91.9872 33.2555C90.3272 33.2555 89.0372 32.7855 88.1172 31.8455C87.1972 30.9055 86.7372 29.5955 86.7372 27.9155C86.7372 27.3355 86.7972 26.7155 86.9172 26.0555L88.6272 16.2755H94.5072L92.9172 25.3055C92.8572 25.5655 92.8272 25.8255 92.8272 26.0855C92.8272 26.8055 93.0372 27.3755 93.4572 27.7955C93.8772 28.1955 94.4472 28.3955 95.1672 28.3955C96.0072 28.3955 96.7172 28.1355 97.2972 27.6155C97.8772 27.0955 98.2672 26.3755 98.4672 25.4555L100.087 16.2755H105.997ZM114.294 26.8055C114.274 26.9055 114.264 27.0255 114.264 27.1655C114.264 27.4855 114.354 27.7255 114.534 27.8855C114.734 28.0255 115.054 28.0955 115.494 28.0955H117.204L116.304 33.1055H113.724C110.064 33.1055 108.234 31.5655 108.234 28.4855C108.234 27.9655 108.294 27.3755 108.414 26.7155L109.404 21.1655H107.334L108.204 16.2755H110.274L110.994 12.1955H116.904L116.184 16.2755H119.214L118.344 21.1655H115.314L114.294 26.8055ZM126.801 33.3155C125.341 33.3155 124.041 33.0255 122.901 32.4455C121.781 31.8655 120.911 31.0455 120.291 29.9855C119.671 28.9255 119.361 27.6855 119.361 26.2655C119.361 24.3455 119.811 22.6055 120.711 21.0455C121.631 19.4855 122.891 18.2655 124.491 17.3855C126.091 16.5055 127.881 16.0655 129.861 16.0655C131.321 16.0655 132.611 16.3555 133.731 16.9355C134.871 17.5155 135.751 18.3455 136.371 19.4255C137.011 20.4855 137.331 21.7255 137.331 23.1455C137.331 25.0855 136.871 26.8355 135.951 28.3955C135.031 29.9355 133.771 31.1455 132.171 32.0255C130.571 32.8855 128.781 33.3155 126.801 33.3155ZM127.701 28.2455C128.401 28.2455 129.021 28.0255 129.561 27.5855C130.121 27.1455 130.541 26.5755 130.821 25.8755C131.121 25.1755 131.271 24.4555 131.271 23.7155C131.271 22.8755 131.051 22.2355 130.611 21.7955C130.191 21.3555 129.641 21.1355 128.961 21.1355C128.241 21.1355 127.611 21.3555 127.071 21.7955C126.551 22.2355 126.141 22.8055 125.841 23.5055C125.561 24.2055 125.421 24.9355 125.421 25.6955C125.421 26.5355 125.631 27.1755 126.051 27.6155C126.471 28.0355 127.021 28.2455 127.701 28.2455ZM145.393 33.3155C143.993 33.3155 142.743 33.1055 141.643 32.6855C140.543 32.2655 139.683 31.6755 139.063 30.9155C138.443 30.1355 138.133 29.2455 138.133 28.2455C138.133 28.0655 138.153 27.7955 138.193 27.4355H143.863C143.843 27.9955 144.013 28.4255 144.373 28.7255C144.733 29.0255 145.233 29.1755 145.873 29.1755C146.373 29.1755 146.783 29.0755 147.103 28.8755C147.443 28.6755 147.613 28.4155 147.613 28.0955C147.613 27.7155 147.403 27.4255 146.983 27.2255C146.563 27.0055 145.863 26.7355 144.883 26.4155C143.743 26.0555 142.803 25.7055 142.063 25.3655C141.323 25.0255 140.673 24.5255 140.113 23.8655C139.573 23.2055 139.303 22.3555 139.303 21.3155C139.303 20.3155 139.593 19.4155 140.173 18.6155C140.773 17.8155 141.613 17.1955 142.693 16.7555C143.773 16.2955 145.023 16.0655 146.443 16.0655C147.963 16.0655 149.273 16.3255 150.373 16.8455C151.493 17.3455 152.323 18.0455 152.863 18.9455C153.423 19.8455 153.673 20.8455 153.613 21.9455H148.333C148.353 21.4055 148.193 20.9855 147.853 20.6855C147.513 20.3655 147.023 20.2055 146.383 20.2055C145.923 20.2055 145.543 20.3055 145.243 20.5055C144.943 20.7055 144.793 20.9655 144.793 21.2855C144.793 21.6655 145.003 21.9655 145.423 22.1855C145.863 22.4055 146.593 22.6855 147.613 23.0255C148.733 23.3855 149.663 23.7455 150.403 24.1055C151.163 24.4455 151.813 24.9355 152.353 25.5755C152.893 26.1955 153.163 26.9955 153.163 27.9755C153.163 29.6355 152.443 30.9455 151.003 31.9055C149.563 32.8455 147.693 33.3155 145.393 33.3155Z" fill="black"/>
<path d="M71.4969 43.8055C71.6169 43.1255 71.8569 42.5335 72.2169 42.0295C72.5849 41.5175 73.0369 41.1215 73.5729 40.8415C74.1089 40.5615 74.6889 40.4215 75.3129 40.4215C76.1209 40.4215 76.7489 40.6175 77.1969 41.0095C77.6529 41.4015 77.9049 41.9455 77.9529 42.6415H76.7769C76.7369 42.2415 76.5729 41.9255 76.2849 41.6935C76.0049 41.4615 75.6249 41.3455 75.1449 41.3455C74.5209 41.3455 73.9769 41.5615 73.5129 41.9935C73.0569 42.4175 72.7609 43.0215 72.6249 43.8055C72.5849 44.0695 72.5649 44.2895 72.5649 44.4655C72.5649 45.0495 72.7209 45.5015 73.0329 45.8215C73.3449 46.1335 73.7609 46.2895 74.2809 46.2895C74.7609 46.2895 75.1769 46.1775 75.5289 45.9535C75.8889 45.7295 76.1649 45.4095 76.3569 44.9935H77.5329C77.2449 45.6655 76.8009 46.2055 76.2009 46.6135C75.6009 47.0135 74.9049 47.2135 74.1129 47.2135C73.2889 47.2135 72.6329 46.9775 72.1449 46.5055C71.6649 46.0335 71.4249 45.3895 71.4249 44.5735C71.4249 44.3255 71.4489 44.0695 71.4969 43.8055ZM78.7859 43.7935C78.9059 43.1215 79.1459 42.5335 79.5059 42.0295C79.8739 41.5175 80.3179 41.1215 80.8379 40.8415C81.3659 40.5615 81.9259 40.4215 82.5179 40.4215C83.0939 40.4215 83.5699 40.5455 83.9459 40.7935C84.3219 41.0415 84.5819 41.3535 84.7259 41.7295L84.9419 40.5295H86.0459L84.8819 47.1055H83.7779L84.0059 45.8815C83.7179 46.2655 83.3379 46.5855 82.8659 46.8415C82.3939 47.0895 81.8739 47.2135 81.3059 47.2135C80.7939 47.2135 80.3419 47.1055 79.9499 46.8895C79.5579 46.6655 79.2539 46.3495 79.0379 45.9415C78.8219 45.5335 78.7139 45.0615 78.7139 44.5255C78.7139 44.2855 78.7379 44.0415 78.7859 43.7935ZM84.3659 43.8055C84.3979 43.6375 84.4139 43.4575 84.4139 43.2655C84.4139 42.6815 84.2379 42.2215 83.8859 41.8855C83.5419 41.5415 83.1019 41.3695 82.5659 41.3695C82.1579 41.3695 81.7659 41.4655 81.3899 41.6575C81.0219 41.8495 80.7059 42.1295 80.4419 42.4975C80.1779 42.8655 80.0019 43.2975 79.9139 43.7935C79.8819 43.9615 79.8659 44.1455 79.8659 44.3455C79.8659 44.9375 80.0379 45.4055 80.3819 45.7495C80.7259 46.0855 81.1659 46.2535 81.7019 46.2535C82.1099 46.2535 82.4979 46.1575 82.8659 45.9655C83.2419 45.7655 83.5619 45.4815 83.8259 45.1135C84.0979 44.7375 84.2779 44.3015 84.3659 43.8055ZM88.7673 41.7775C89.0313 41.3455 89.3633 41.0095 89.7633 40.7695C90.1633 40.5295 90.6193 40.4095 91.1313 40.4095L90.9273 41.5375H90.6393C90.0713 41.5375 89.5953 41.6895 89.2113 41.9935C88.8353 42.2975 88.5833 42.8095 88.4553 43.5295L87.8193 47.1055H86.7273L87.8913 40.5295H88.9833L88.7673 41.7775ZM94.9461 43.7935C95.0661 43.1215 95.3061 42.5335 95.6661 42.0295C96.0341 41.5175 96.4821 41.1215 97.0101 40.8415C97.5381 40.5615 98.0981 40.4215 98.6901 40.4215C99.1941 40.4215 99.6461 40.5415 100.046 40.7815C100.446 41.0135 100.73 41.3215 100.898 41.7055L101.51 38.2255H102.614L101.042 47.1055H99.9381L100.166 45.8695C99.8861 46.2615 99.5101 46.5855 99.0381 46.8415C98.5661 47.0895 98.0461 47.2135 97.4781 47.2135C96.9661 47.2135 96.5141 47.1055 96.1221 46.8895C95.7301 46.6655 95.4221 46.3495 95.1981 45.9415C94.9821 45.5335 94.8741 45.0615 94.8741 44.5255C94.8741 44.2855 94.8981 44.0415 94.9461 43.7935ZM100.526 43.8055C100.558 43.6375 100.574 43.4575 100.574 43.2655C100.574 42.6815 100.398 42.2215 100.046 41.8855C99.7021 41.5415 99.2621 41.3695 98.7261 41.3695C98.3181 41.3695 97.9261 41.4655 97.5501 41.6575C97.1821 41.8495 96.8661 42.1295 96.6021 42.4975C96.3381 42.8655 96.1621 43.2975 96.0741 43.7935C96.0421 43.9615 96.0261 44.1455 96.0261 44.3455C96.0261 44.9375 96.1981 45.4055 96.5421 45.7495C96.8861 46.0855 97.3261 46.2535 97.8621 46.2535C98.2701 46.2535 98.6581 46.1575 99.0261 45.9655C99.4021 45.7655 99.7221 45.4815 99.9861 45.1135C100.258 44.7375 100.438 44.3015 100.526 43.8055ZM106.907 40.4215C107.459 40.4215 107.935 40.5295 108.335 40.7455C108.743 40.9535 109.051 41.2495 109.259 41.6335C109.475 42.0095 109.583 42.4415 109.583 42.9295C109.583 43.0975 109.563 43.3015 109.523 43.5415C109.491 43.7495 109.439 43.9655 109.367 44.1895H104.111C104.095 44.3495 104.087 44.4655 104.087 44.5375C104.087 45.0895 104.251 45.5215 104.579 45.8335C104.915 46.1375 105.351 46.2895 105.887 46.2895C106.359 46.2895 106.771 46.1815 107.123 45.9655C107.483 45.7415 107.755 45.4455 107.939 45.0775H109.115C108.827 45.7095 108.383 46.2255 107.783 46.6255C107.191 47.0175 106.503 47.2135 105.719 47.2135C104.895 47.2135 104.231 46.9775 103.727 46.5055C103.231 46.0255 102.983 45.3735 102.983 44.5495C102.983 44.3175 103.007 44.0695 103.055 43.8055C103.175 43.1255 103.419 42.5295 103.787 42.0175C104.155 41.5055 104.607 41.1135 105.143 40.8415C105.687 40.5615 106.275 40.4215 106.907 40.4215ZM108.419 43.3975C108.443 43.2375 108.455 43.0895 108.455 42.9535C108.455 42.4415 108.291 42.0455 107.963 41.7655C107.643 41.4855 107.223 41.3455 106.703 41.3455C106.143 41.3455 105.635 41.5295 105.179 41.8975C104.723 42.2575 104.415 42.7575 104.255 43.3975H108.419ZM110.497 43.7935C110.617 43.1215 110.857 42.5335 111.217 42.0295C111.585 41.5175 112.029 41.1215 112.549 40.8415C113.077 40.5615 113.637 40.4215 114.229 40.4215C114.805 40.4215 115.281 40.5455 115.657 40.7935C116.033 41.0415 116.293 41.3535 116.437 41.7295L116.653 40.5295H117.757L116.593 47.1055H115.489L115.717 45.8815C115.429 46.2655 115.049 46.5855 114.577 46.8415C114.105 47.0895 113.585 47.2135 113.017 47.2135C112.505 47.2135 112.053 47.1055 111.661 46.8895C111.269 46.6655 110.965 46.3495 110.749 45.9415C110.533 45.5335 110.425 45.0615 110.425 44.5255C110.425 44.2855 110.449 44.0415 110.497 43.7935ZM116.077 43.8055C116.109 43.6375 116.125 43.4575 116.125 43.2655C116.125 42.6815 115.949 42.2215 115.597 41.8855C115.253 41.5415 114.813 41.3695 114.277 41.3695C113.869 41.3695 113.477 41.4655 113.101 41.6575C112.733 41.8495 112.417 42.1295 112.153 42.4975C111.889 42.8655 111.713 43.2975 111.625 43.7935C111.593 43.9615 111.577 44.1455 111.577 44.3455C111.577 44.9375 111.749 45.4055 112.093 45.7495C112.437 46.0855 112.877 46.2535 113.413 46.2535C113.821 46.2535 114.209 46.1575 114.577 45.9655C114.953 45.7655 115.273 45.4815 115.537 45.1135C115.809 44.7375 115.989 44.3015 116.077 43.8055ZM121.102 38.2255L119.53 47.1055H118.438L120.01 38.2255H121.102ZM125.411 40.4215C125.963 40.4215 126.439 40.5295 126.839 40.7455C127.247 40.9535 127.555 41.2495 127.763 41.6335C127.979 42.0095 128.087 42.4415 128.087 42.9295C128.087 43.0975 128.067 43.3015 128.027 43.5415C127.995 43.7495 127.943 43.9655 127.871 44.1895H122.615C122.599 44.3495 122.591 44.4655 122.591 44.5375C122.591 45.0895 122.755 45.5215 123.083 45.8335C123.419 46.1375 123.855 46.2895 124.391 46.2895C124.863 46.2895 125.275 46.1815 125.627 45.9655C125.987 45.7415 126.259 45.4455 126.443 45.0775H127.619C127.331 45.7095 126.887 46.2255 126.287 46.6255C125.695 47.0175 125.007 47.2135 124.223 47.2135C123.399 47.2135 122.735 46.9775 122.231 46.5055C121.735 46.0255 121.487 45.3735 121.487 44.5495C121.487 44.3175 121.511 44.0695 121.559 43.8055C121.679 43.1255 121.923 42.5295 122.291 42.0175C122.659 41.5055 123.111 41.1135 123.647 40.8415C124.191 40.5615 124.779 40.4215 125.411 40.4215ZM126.923 43.3975C126.947 43.2375 126.959 43.0895 126.959 42.9535C126.959 42.4415 126.795 42.0455 126.467 41.7655C126.147 41.4855 125.727 41.3455 125.207 41.3455C124.647 41.3455 124.139 41.5295 123.683 41.8975C123.227 42.2575 122.919 42.7575 122.759 43.3975H126.923ZM130.873 41.7775C131.137 41.3455 131.469 41.0095 131.869 40.7695C132.269 40.5295 132.725 40.4095 133.237 40.4095L133.033 41.5375H132.745C132.177 41.5375 131.701 41.6895 131.317 41.9935C130.941 42.2975 130.689 42.8095 130.561 43.5295L129.925 47.1055H128.833L129.997 40.5295H131.089L130.873 41.7775ZM135.625 47.2135C134.937 47.2135 134.373 47.0495 133.933 46.7215C133.493 46.3935 133.273 45.9535 133.273 45.4015C133.273 45.2975 133.277 45.2215 133.285 45.1735H134.353C134.321 45.5175 134.421 45.7975 134.653 46.0135C134.893 46.2295 135.237 46.3375 135.685 46.3375C136.133 46.3375 136.493 46.2535 136.765 46.0855C137.045 45.9095 137.185 45.6655 137.185 45.3535C137.185 45.0895 137.073 44.8815 136.849 44.7295C136.625 44.5775 136.281 44.4135 135.817 44.2375C135.409 44.0855 135.073 43.9415 134.809 43.8055C134.545 43.6695 134.321 43.4815 134.137 43.2415C133.953 42.9935 133.861 42.6815 133.861 42.3055C133.861 41.9375 133.965 41.6095 134.173 41.3215C134.389 41.0335 134.685 40.8135 135.061 40.6615C135.445 40.5015 135.881 40.4215 136.369 40.4215C137.041 40.4215 137.593 40.5895 138.025 40.9255C138.457 41.2615 138.673 41.7015 138.673 42.2455C138.673 42.3495 138.669 42.4295 138.661 42.4855H137.617L137.629 42.3415C137.629 42.0215 137.505 41.7695 137.257 41.5855C137.017 41.3935 136.697 41.2975 136.297 41.2975C135.905 41.2975 135.581 41.3855 135.325 41.5615C135.077 41.7375 134.953 41.9735 134.953 42.2695C134.953 42.5495 135.069 42.7695 135.301 42.9295C135.533 43.0895 135.893 43.2655 136.381 43.4575C136.789 43.6175 137.117 43.7655 137.365 43.9015C137.613 44.0295 137.825 44.2095 138.001 44.4415C138.177 44.6735 138.265 44.9655 138.265 45.3175C138.265 45.7015 138.149 46.0375 137.917 46.3255C137.693 46.6135 137.381 46.8335 136.981 46.9855C136.581 47.1375 136.129 47.2135 135.625 47.2135ZM144.031 40.4095C144.687 40.4095 145.215 40.5935 145.615 40.9615C146.015 41.3215 146.215 41.8455 146.215 42.5335C146.215 42.7895 146.195 43.0215 146.155 43.2295L145.471 47.1055H144.391L145.051 43.3855C145.083 43.2175 145.099 43.0415 145.099 42.8575C145.099 42.3695 144.963 41.9975 144.691 41.7415C144.427 41.4855 144.055 41.3575 143.575 41.3575C142.999 41.3575 142.507 41.5375 142.099 41.8975C141.699 42.2575 141.439 42.7815 141.319 43.4695V43.4455L140.671 47.1055H139.579L141.151 38.2255H142.243L141.667 41.4775C141.939 41.1415 142.283 40.8815 142.699 40.6975C143.123 40.5055 143.567 40.4095 144.031 40.4095ZM149.163 39.4615C148.987 39.4615 148.839 39.4055 148.719 39.2935C148.607 39.1735 148.551 39.0255 148.551 38.8495C148.551 38.6095 148.639 38.4055 148.815 38.2375C148.991 38.0615 149.195 37.9735 149.427 37.9735C149.611 37.9735 149.759 38.0295 149.871 38.1415C149.983 38.2535 150.039 38.4015 150.039 38.5855C150.039 38.8255 149.951 39.0335 149.775 39.2095C149.599 39.3775 149.395 39.4615 149.163 39.4615ZM149.511 40.5295L148.347 47.1055H147.255L148.419 40.5295H149.511ZM152.248 41.7415C152.536 41.3655 152.916 41.0535 153.388 40.8055C153.86 40.5495 154.376 40.4215 154.936 40.4215C155.448 40.4215 155.9 40.5295 156.292 40.7455C156.692 40.9535 157 41.2575 157.216 41.6575C157.432 42.0495 157.54 42.5135 157.54 43.0495C157.54 43.2815 157.516 43.5295 157.468 43.7935C157.348 44.4575 157.104 45.0495 156.736 45.5695C156.376 46.0895 155.932 46.4935 155.404 46.7815C154.884 47.0695 154.332 47.2135 153.748 47.2135C153.188 47.2135 152.716 47.0895 152.332 46.8415C151.956 46.5855 151.684 46.2695 151.516 45.8935L150.76 50.2255H149.668L151.372 40.5295H152.464L152.248 41.7415ZM156.352 43.7935C156.384 43.6255 156.4 43.4415 156.4 43.2415C156.4 42.6575 156.228 42.2015 155.884 41.8735C155.54 41.5375 155.096 41.3695 154.552 41.3695C154.152 41.3695 153.764 41.4695 153.388 41.6695C153.012 41.8615 152.688 42.1455 152.416 42.5215C152.152 42.8895 151.976 43.3175 151.888 43.8055C151.856 43.9735 151.84 44.1575 151.84 44.3575C151.84 44.9415 152.012 45.4055 152.356 45.7495C152.708 46.0855 153.152 46.2535 153.688 46.2535C154.096 46.2535 154.484 46.1575 154.852 45.9655C155.228 45.7655 155.548 45.4815 155.812 45.1135C156.084 44.7375 156.264 44.2975 156.352 43.7935Z" fill="#CA0100"/>
</svg>
