<svg width="20" height="15" viewBox="0 0 20 15" fill="none" xmlns="http://www.w3.org/2000/svg">
<path d="M6.29993 14.9924C5.79104 14.9924 5.3284 14.8073 4.98143 14.4372L0.586409 10.0422C0.239434 9.69523 0.03125 9.20946 0.03125 8.7237C0.03125 8.2148 0.216302 7.75217 0.586409 7.40519C0.933384 7.05822 1.41915 6.85003 1.90492 6.85003C2.39068 6.85003 2.87645 7.03509 3.22342 7.40519L6.06862 10.2504C6.13801 10.3198 6.20741 10.3429 6.29993 10.3429C6.39246 10.3429 6.46186 10.3198 6.53125 10.2504L15.9921 0.789537C16.3391 0.442562 16.8248 0.234375 17.3106 0.234375C17.7964 0.234375 18.2821 0.41943 18.6291 0.789537C19.3693 1.52975 19.3693 2.70947 18.6291 3.44968L7.61844 14.4604C7.27146 14.8073 6.7857 14.9924 6.29993 14.9924Z" fill="white"/>
</svg>
