<svg width="57" height="57" viewBox="0 0 57 57" fill="none" xmlns="http://www.w3.org/2000/svg">
<circle cx="28.5" cy="28.5" r="28.5" fill="#CA0100"/>
<path d="M28.5 48C17.7438 48 9 39.2562 9 28.5C9 17.7438 17.7438 9 28.5 9C39.2562 9 48 17.7438 48 28.5C48 39.2562 39.2562 48 28.5 48ZM28.5 12.7705C19.8256 12.7705 12.7473 19.8256 12.7473 28.5231C12.7473 37.1975 19.8025 44.2758 28.5 44.2758C37.1744 44.2758 44.2527 37.2206 44.2527 28.5231C44.2527 19.8256 37.1744 12.7705 28.5 12.7705Z" fill="white"/>
<path d="M26.2999 36.9924C25.791 36.9924 25.3284 36.8073 24.9814 36.4372L20.5864 32.0422C20.2394 31.6952 20.0312 31.2095 20.0312 30.7237C20.0312 30.2148 20.2163 29.7522 20.5864 29.4052C20.9334 29.0582 21.4192 28.85 21.9049 28.85C22.3907 28.85 22.8764 29.0351 23.2234 29.4052L26.0686 32.2504C26.138 32.3198 26.2074 32.3429 26.2999 32.3429C26.3925 32.3429 26.4619 32.3198 26.5313 32.2504L35.9921 22.7895C36.3391 22.4426 36.8248 22.2344 37.3106 22.2344C37.7964 22.2344 38.2821 22.4194 38.6291 22.7895C39.3693 23.5298 39.3693 24.7095 38.6291 25.4497L27.6184 36.4604C27.2715 36.8073 26.7857 36.9924 26.2999 36.9924Z" fill="white"/>
</svg>
